<?xml version="1.0" encoding="utf-8"?>
<!-- Generator: Adobe Illustrator 26.0.1, SVG Export Plug-In . SVG Version: 6.00 Build 0)  -->
<svg version="1.1" id="Layer_1" xmlns="http://www.w3.org/2000/svg" xmlns:xlink="http://www.w3.org/1999/xlink" x="0px" y="0px"
	 viewBox="0 0 128 128" style="enable-background:new 0 0 128 128;" xml:space="preserve">
<style type="text/css">
	.st0{display:none;}
	.st1{display:inline;fill:#504BB8;}
	.st2{fill:#78AE03;}
</style>
<g class="st0">
	<path class="st1" d="M56.9,79.8c0.2,0,0.4,0,0.6,0c5.2,0,10.5,0,15.8,0c1.4,0,2.7,0.3,3.9,1.1c3.7,2.2,4.4,7.4,1.6,10.5
		c-0.1,0.1-0.2,0.2-0.3,0.4c2.8,2.9,2.7,7.3,0,10c2.9,3,2.5,7.4,0,10c0.2,0.2,0.4,0.4,0.6,0.7c1.6,2.2,2,4.6,0.9,7.1
		c-1.1,2.6-3.2,3.9-6,4.2c-0.3,0-0.6,0-0.8,0c-22,0-44,0-66,0c-0.3,0-0.6,0-0.9-0.1c-0.8-0.2-1.4-0.8-1.5-1.7c0-0.2,0-0.5,0-0.7
		c0-13,0-26,0-39c0-0.2,0-0.4,0-0.6c0.1-0.8,0.7-1.5,1.5-1.7c0.3-0.1,0.6-0.1,0.9-0.1c8.5,0,16.9,0,25.4,0c0.8,0,1.5-0.1,2.2-0.3
		c1.8-0.6,3-1.8,3.7-3.5c0.6-1.6,1.1-3.3,1.7-4.9c1.9-5.7,3.8-11.3,5.7-17c0.7-2.1,1.1-4.2,1.4-6.4c0.2-1.2,0.3-2.4,0.5-3.6
		c0.3-1.7,1.2-2.8,2.8-3.3c1.7-0.5,3.6,0.2,4.5,1.7c2,3.3,3.3,6.9,4,10.7c0.4,2.3,0.6,4.6,0.3,6.9c-0.2,1.9-0.4,3.8-0.7,5.7
		c-0.3,2.1-0.6,4.2-0.8,6.3c-0.3,2.1-0.6,4.2-0.8,6.3C57,78.9,57,79.3,56.9,79.8z M24.7,119.7c0.2,0,0.5,0,0.7,0
		c15.9,0,31.8,0,47.7,0c0.2,0,0.4,0,0.6,0c1.2-0.1,2.2-0.7,2.6-1.9c0.5-1.2,0.2-2.2-0.6-3.2c-0.6-0.7-1.4-0.9-2.3-0.9
		c-4.1,0-8.2,0-12.2,0c-0.2,0-0.4,0-0.6,0c-0.1-0.6-0.1-3.6,0-4c0.2,0,0.4,0,0.6,0c3.1,0,6.3,0,9.4,0c1,0,2,0,3,0
		c1.3,0,2.5-1,2.8-2.3s-0.3-2.7-1.5-3.3c-0.5-0.3-1.1-0.3-1.6-0.3c-4.1,0-8.1,0-12.2,0c-0.2,0-0.4,0-0.6,0c0-1.3,0-2.6,0-4
		c0.2,0,0.4,0,0.6,0c3.5,0,7.1,0,10.6,0c0.6,0,1.3,0,1.9,0c1.2-0.1,2.2-0.7,2.6-1.9c0.5-1.2,0.2-2.3-0.6-3.2
		c-0.6-0.6-1.4-0.9-2.3-0.9c-4.1,0-8.1,0-12.2,0c-0.2,0-0.4,0-0.6,0c0-1.4,0-2.7,0-4c0.2,0,0.4,0,0.6,0c2.9,0,5.8,0,8.6,0
		c1.3,0,2.5,0,3.8,0s2.5-1,2.8-2.3s-0.3-2.7-1.6-3.3c-0.5-0.3-1.1-0.3-1.6-0.3c-6.1,0-12.2,0-18.2,0c-0.2,0-0.5,0-0.7,0
		c-1.2-0.2-1.9-1.1-1.8-2.3c0.3-2.2,0.6-4.5,0.9-6.8c0.3-2.1,0.5-4.2,0.8-6.3c0.3-2.1,0.6-4.2,0.8-6.3c0.2-1.3,0.3-2.7,0.3-4.1
		c0-1.6-0.2-3.2-0.5-4.8c-0.5-3-1.6-5.8-3.1-8.4c0-0.1-0.1-0.2-0.2-0.3c-0.2,1.4-0.4,2.8-0.6,4.1c-0.3,1.8-0.6,3.6-1.2,5.3
		c-2.5,7.6-5,15.2-7.6,22.8c-0.8,2.6-2.5,4.5-4.8,5.7c-1.5,0.8-3.2,1.2-4.9,1.2c-2.5,0-4.9,0-7.4,0c-0.2,0-0.4,0-0.5,0
		C24.7,95.8,24.7,107.8,24.7,119.7z M8.7,119.7c0.8,0.1,11.6,0.1,11.9,0c0-11.9,0-23.8,0-35.7C19.8,83.9,9,83.9,8.7,84
		C8.7,95.8,8.7,107.7,8.7,119.7z"/>
	<path class="st1" d="M104.5,113.8c-11.2-0.1-20-9.2-20-20c0-11.1,9.1-20,20-19.9c10.8,0,19.9,8.8,19.9,19.9
		C124.4,104.7,115.6,113.7,104.5,113.8z M104.5,109.8c8.7,0.1,15.9-7,16-15.9c0-8.8-7.1-16-15.9-16s-15.9,7.2-16,15.9
		C88.5,102.7,95.8,109.8,104.5,109.8z"/>
	<path class="st1" d="M24.6,44c-11.2-0.1-20-9.2-19.9-20c0-11.1,9.1-19.9,20-19.9c10.8,0,19.9,8.8,19.9,20
		C44.6,34.9,35.8,43.9,24.6,44z M24.7,40c8.6,0.1,15.9-7,15.9-15.9c0-8.8-7.2-16-16-16s-15.9,7.2-15.9,16C8.7,32.9,16,40,24.7,40z"
		/>
	<path class="st1" d="M94.5,53.9c-11.2-0.1-20-9.2-19.9-20c0-11.1,9.1-20,20-19.9c10.8,0,19.9,8.8,19.9,20
		C114.4,44.9,105.7,53.9,94.5,53.9z M94.5,49.9c8.6,0.1,15.9-7,15.9-15.9c0-8.8-7.2-16-16-16s-15.9,7.2-15.9,16S85.8,50,94.5,49.9z"
		/>
	<path class="st1" d="M12.7,57.9c-1.4,0-2.7,0-4,0c0-1.3,0-2.6,0-3.9c-1.3,0-2.6,0-3.9,0c-0.1-0.4-0.1-3.5,0-4c1.3,0,2.6,0,3.9,0
		c0-1.3,0-2.6,0-4c1.3,0,2.6,0,4,0c0,1.3,0,2.6,0,3.9c1.4,0,2.6,0,3.9,0c0.1,0.4,0.1,3.4,0,4c-1.3,0-2.6,0-3.9,0
		C12.7,55.3,12.7,56.6,12.7,57.9z"/>
	<path class="st1" d="M74.5,8.1c1.4,0,2.7,0,3.9,0c0.1,0.4,0.2,2.9,0.1,4c-0.4,0.1-0.9,0-1.3,0s-0.9,0-1.3,0s-0.9,0-1.4,0
		c0,1.3,0,2.6,0,4c-1.3,0-2.6,0-4,0c0-1.3,0-2.6,0-3.9c-1.3,0-2.6,0-4,0c0-1.4,0-2.7,0-4c1.3,0,2.6,0,3.9,0c0-1.3,0-2.6,0-4
		c1.3,0,2.6,0,4,0C74.5,5.4,74.5,6.7,74.5,8.1z"/>
	<path class="st1" d="M112.5,12.1c0-1.4,0-2.7,0-4c1.3,0,2.6,0,4,0c0-1.3,0-2.6,0-3.9c1.3,0,2.6,0,4,0c0,1.3,0,2.6,0,3.9
		c1.3,0,2.6,0,3.9,0c0.1,0.4,0.1,3.5,0,4c-1.3,0-2.6,0-3.9,0c0,1.4,0,2.6,0,4c-1.3,0-2.6,0-4,0c0-1.3,0-2.6,0-4
		C115.1,12.1,113.8,12.1,112.5,12.1z"/>
	<path class="st1" d="M116.4,59.9c0-1.4,0-2.6,0-4c1.3,0,2.6,0,4,0c0,1.3,0,2.6,0,4c1.3,0,2.6,0,3.9,0c0.1,0.4,0.1,3.5,0,4
		c-1.3,0-2.6,0-3.9,0c-0.1,1.3,0,2.6,0,3.9c-0.4,0.1-3,0.1-3.9,0.1c0-1.3,0-2.6,0-3.9c-1.3,0-2.6,0-4,0c0-1.3,0-2.6,0-4
		C113.8,59.9,115.1,59.9,116.4,59.9z"/>
	<path class="st1" d="M68.5,47.9c-1.3,0-2.6,0-3.9,0c0-1.3,0-2.6,0-3.9c1.3,0,2.6,0,3.9,0C68.5,45.3,68.5,46.6,68.5,47.9z"/>
	<path class="st1" d="M92.5,123.7c-1.3,0-2.6,0-3.9,0c-0.1-0.4-0.1-3.4,0-3.9c1.3,0,2.6,0,3.9,0C92.5,121.1,92.5,122.4,92.5,123.7z"
		/>
	<path class="st1" d="M20.7,57.9c1.3,0,2.6,0,3.9,0c0,1.3,0,2.6,0,3.9c-0.4,0.1-3.5,0.1-3.9,0C20.7,60.5,20.7,59.3,20.7,57.9z"/>
	<path class="st1" d="M76.6,61.9c0-1.4,0-2.7,0-4c1.3,0,2.6,0,3.9,0c0,1.3,0,2.6,0,3.9C79.2,62,77.9,61.9,76.6,61.9z"/>
	<path class="st1" d="M52.6,8c-1.3,0-2.6,0-3.9,0c0-1.3,0-2.6,0-3.9c1.3,0,2.6,0,3.9,0C52.6,5.4,52.6,6.7,52.6,8z"/>
	<path class="st1" d="M116.4,93.8c0,6.6-5.4,11.9-12,11.9s-12-5.4-11.9-12c0-6.6,5.4-11.9,12-11.9C111.1,81.9,116.5,87.2,116.4,93.8
		z M104.5,101.8c4.4,0,8-3.6,8-8s-3.6-8-8-8s-8,3.6-8,8C96.5,98.2,100.1,101.8,104.5,101.8z"/>
	<path class="st1" d="M36.6,24c0,6.6-5.4,12-12,11.9c-6.6,0-12-5.4-11.9-12c0-6.6,5.4-11.9,12-11.9C31.3,12.1,36.7,17.5,36.6,24z
		 M24.6,32c4.4,0,7.9-3.6,8-7.8c0.1-4.3-3.3-8.1-7.8-8.2c-4.5-0.1-8.1,3.5-8.1,7.9C16.6,28.2,20.1,31.9,24.6,32z"/>
	<path class="st1" d="M106.5,34c0,6.6-5.4,12-12,12s-12-5.4-12-12s5.4-12,12-12S106.5,27.4,106.5,34z M94.5,42c4.4,0,7.9-3.5,8-7.9
		c0-4.4-3.5-8-7.9-8s-8,3.5-8,8C86.5,38.4,90.1,42,94.5,42z"/>
</g>
<g class="st0">
	<path class="st1" d="M75.5,107.7c0-0.3,0-0.5,0-0.7c0-3.6,0-7.1,0-10.7c0-0.7,0.1-1.3,0.3-1.9c1.1-4.4,3.6-7.8,7.3-10.3
		c2.3-1.6,4.8-2.7,7.5-3.4c1.5-0.4,3.1-0.8,4.6-1.1c3.3-0.8,6.6-1.7,9.9-2.8c1.6-0.6,3.2-0.5,4.8,0.2c0.5,0.2,1,0.6,1.5,0.9
		c0.5-0.4,1.2-0.8,1.7-1.3c0.4-0.4,0.5-0.9,0.5-1.4c0-1.3,0-2.6,0-3.8c0-1.2-0.1-2.3,0.1-3.5c0.2-2.3,1.4-4.2,3.6-5.1
		c2.3-1,4.4-0.6,6.3,1c1.4,1.1,2.1,2.7,2.4,4.4c0,0.2,0,0.3,0,0.5c0,2.8,0,5.5,0,8.3c0,3.3-0.9,6.4-2.6,9.3
		c-2.9,5.1-6.8,9.5-11.4,13.1c-3.7,2.9-7.7,5.2-12,7c-0.1,0.1-0.2,0.1-0.3,0.1c-0.6,0.3-0.7,0.5-0.7,1.2c0.4,0,0.9,0.1,1.3,0.1
		c2.4,0.4,4.2,2.4,4.2,4.9c0,1.7,0,3.4,0,5.2c0,2.2-2,4.4-4.4,4.4c-3.2,0-6.4,0-9.6,0c-5.4,0-10.9,0-16.3,0c-0.7,0-1.5-0.1-2.1-0.4
		c-1.4-0.7-2.2-1.8-2.4-3.4c0-0.2,0-0.4,0-0.6c0-1.7,0-3.3,0-4.9c0-2.1,1-3.7,2.9-4.6c0.6-0.3,1.3-0.5,2-0.5
		C74.7,107.7,75.1,107.7,75.5,107.7z M94.3,107.7c0-0.2,0-0.3,0-0.5c0-0.6,0.2-1.2,0.4-1.8c0.6-1.3,1.7-2.2,3-2.8
		c3.2-1.3,6.2-2.9,9-4.9c4.9-3.4,8.9-7.5,12.1-12.6c1.6-2.6,2.5-5.3,2.5-8.3c0-2.8,0-5.5,0-8.2c0-0.2,0-0.3-0.1-0.5
		c-0.2-0.7-0.8-1.3-1.5-1.4c-1.1-0.2-2.5,0.7-2.4,2c0,0.2,0,0.3,0,0.5c0,2.1,0,4.1,0,6.2c0,1.5-0.5,2.8-1.5,3.9
		c-0.6,0.7-1.3,1.2-2.1,1.7c-0.3,0.2-0.7,0.4-0.9,0.7c-0.2,0.3-0.1,0.8-0.1,1.1c-0.1,1.3-0.4,2.4-1.2,3.4c-0.6,0.8-1.4,1.3-2.3,1.7
		c-4,2-8,3.9-12.1,5.9c-0.2,0.1-0.3,0.2-0.5,0.2c-0.9,0.3-1.9,0-2.3-0.8c-0.5-0.8-0.4-1.8,0.2-2.5c0.2-0.2,0.5-0.4,0.8-0.6
		c4.2-2.1,8.4-4.1,12.6-6.2c0.2-0.1,0.5-0.3,0.6-0.6c0.2-0.3,0.3-0.7,0.4-1c0.1-0.6-0.1-1.2-0.6-1.5c-0.6-0.4-1.3-0.5-2-0.3
		c-0.5,0.2-1,0.3-1.6,0.5c-3.3,1.1-6.5,2-9.9,2.8c-2.1,0.4-4.1,0.9-6.1,1.8c-1.7,0.7-3.3,1.6-4.8,2.7c-2.4,1.9-4,4.4-4.6,7.4
		c-0.1,0.2-0.1,0.5-0.1,0.7c0,3.6,0,7.1,0,10.7c0,0.2,0,0.3,0,0.5C84.4,107.7,89.3,107.7,94.3,107.7z M73.5,118c0.3,0,0.5,0,0.7,0
		c6.2,0,12.3,0,18.5,0c2.2,0,4.4,0,6.6,0c0.6,0,0.6-0.1,0.6-0.7c0-1.5,0-2.9,0-4.4c0-0.8-0.3-1.1-1.1-1.1c-8.1,0-16.2,0-24.3,0
		c-0.8,0-1.1,0.3-1.1,1.1c0,1.5,0,3,0,4.5C73.5,117.7,73.5,117.8,73.5,118z"/>
	<path class="st1" d="M17.6,77.9c0.6-0.4,1.2-0.8,1.8-1.1c1.4-0.6,2.8-0.7,4.3-0.1c3.9,1.4,7.8,2.4,11.8,3.3
		c2.9,0.6,5.6,1.5,8.2,2.9c2.4,1.3,4.5,2.9,6.2,5c1.8,2.2,2.9,4.7,3.5,7.5c0,0.2,0,0.4,0,0.7c0,3.7,0,7.4,0,11.1c0,0.2,0,0.4,0,0.7
		c0.4,0,0.8,0,1.1,0c2.3,0.1,4.5,1.8,5,4.1c0,0.2,0.1,0.5,0.1,0.7c0,1.6,0,3.2,0,4.8c0,2.5-2,4.5-4.5,4.5c-8.7,0-17.4,0-26,0
		c-1.7,0-3-0.7-3.9-2.1c-0.4-0.7-0.6-1.4-0.6-2.2c0-1.7,0-3.4,0-5.1c0-2.8,2.2-4.9,5-5c0.2,0,0.3,0,0.5,0c0.2-0.7,0-1-0.7-1.3
		c-0.8-0.3-1.6-0.6-2.4-1c-4-1.8-7.7-4.1-11-6.9c-3.4-2.9-6.4-6.2-8.8-9.9c-0.9-1.4-1.8-2.8-2.4-4.3c-0.9-2.1-1.5-4.3-1.5-6.6
		c-0.1-3.1-0.1-6.2-0.1-9.3c0-2.6,1.6-4.8,4-5.6c1.4-0.5,2.7-0.5,4.1,0.1c1.8,0.8,3.1,1.9,3.8,3.8c0.2,0.7,0.3,1.4,0.3,2.2
		c0,2.2,0,4.4,0,6.6c0,0.8,0.3,1.5,1,1.9C16.8,77.3,17.2,77.6,17.6,77.9z M49.2,107.7c0-0.2,0-0.4,0-0.5c0-3.5,0-7.1,0-10.6
		c0-0.3,0-0.6-0.1-0.8c-0.3-0.9-0.5-1.8-0.9-2.7c-1.1-2.4-2.9-4.3-5.2-5.7c-2.3-1.4-4.7-2.3-7.3-3c-2.2-0.5-4.4-1-6.6-1.6
		c-2.4-0.7-4.7-1.4-7-2.2c-0.8-0.2-1.5-0.1-2,0.5s-0.6,1.2-0.3,2c0.2,0.6,0.7,0.9,1.2,1.2c3.9,1.9,7.7,3.8,11.6,5.7
		c0.3,0.2,0.7,0.3,1,0.5c0.7,0.4,1,1,0.9,1.8c0,0.8-0.3,1.3-1,1.7c-0.7,0.3-1.4,0.3-2-0.1c-4.2-2.1-8.4-4.1-12.6-6.2
		c-0.9-0.5-1.7-1.2-2.2-2.1c-0.6-1-0.9-2.1-0.9-3.2c0-0.4-0.1-0.7-0.5-0.9c-0.5-0.3-1-0.7-1.5-1.1c-0.9-0.7-1.6-1.6-2.1-2.7
		c-0.3-0.8-0.4-1.6-0.4-2.4c0-2.1,0-4.3,0-6.4c0-0.7-0.2-1.2-0.6-1.7c-0.5-0.6-1.7-0.8-2.4-0.3c-0.6,0.4-0.8,1-0.8,1.7
		c0,2.5,0,5,0,7.4c0,0.7,0,1.3,0.1,2c0.2,2.2,0.8,4.3,2,6.2c1.9,3.2,4.1,6.2,6.8,8.8c4.4,4.3,9.3,7.6,15,9.8c1.8,0.7,2.7,2,3,3.9
		c0,0.3,0.1,0.7,0.1,1C39.4,107.7,44.3,107.7,49.2,107.7z M28.8,118c0.5,0.1,26-0.1,26.4-0.2c0-0.1,0-0.2,0-0.3c0-1.5,0-3,0-4.5
		c0-0.1,0-0.2,0-0.3c-0.1-0.4-0.4-0.7-0.8-0.8c-0.1,0-0.3,0-0.4,0c-8,0-16,0-23.9,0c-0.1,0-0.3,0-0.5,0c-0.3,0-0.5,0.1-0.6,0.4
		c-0.1,0.2-0.2,0.4-0.2,0.6c0,1.6,0,3.2,0,4.7C28.8,117.7,28.8,117.8,28.8,118z"/>
	<path class="st1" d="M54.1,22.8c0.3,0,0.5,0,0.7,0c9.6,0,19.2,0,28.8,0c0.4,0,0.8,0,1.1,0.1c1.6,0.3,2.8,1.8,2.8,3.5
		c0,3.6,0,7.1,0,10.7c0,2-1.5,3.5-3.6,3.5c-2.9,0-5.9,0-8.9,0c-9.7,0-19.4,0-29.1,0c-1.2,0-2.2-0.5-3-1.4c-0.5-0.6-0.7-1.3-0.7-2.1
		c0-1.6,0-3.2,0-4.8c0-0.2,0-0.4,0-0.6c-0.3,0-0.5,0-0.7,0c-3.3,0-6.2-1.1-8.6-3.3c-2.5-2.2-3.9-4.9-4.3-8.2
		c-0.4-3.6,0.5-6.9,2.8-9.8c2.1-2.6,4.8-4.1,8-4.6c2.1-0.3,4.2-0.2,6.2,0.5c4.5,1.6,7.3,4.7,8.5,9.3c0.6,2.2,0.5,4.4-0.1,6.5
		C54.2,22.3,54.1,22.5,54.1,22.8z M83.6,26.9c-0.2,0-0.3,0-0.5,0c-10.3,0-20.6,0-30.9,0c-0.3,0-0.5,0.1-0.7,0.3
		c-1.1,1.4-2.5,2.4-4,3.1c-0.3,0.2-0.7,0.3-1.1,0.5c0,1.9,0,3.7,0,5.5l0.1,0.1c0.1,0,0.3,0,0.4,0c12.2,0,24.4,0,36.6,0l0,0l0,0
		C83.6,33.2,83.6,30.1,83.6,26.9z M42,9.8c-1.5,0-2.6,0.2-3.7,0.6c-2.4,1-4.1,2.7-4.9,5.2C33,16.8,32.9,18,33,19.3
		c0.1,1.9,0.8,3.6,2.1,5.1c1.6,1.8,3.6,2.9,6,3.1c0.9,0.1,1.9,0.1,2.8-0.1c2.8-0.9,4.8-2.5,6-5.2c1.2-3,1-5.8-0.8-8.5
		C47.2,11,44.7,9.8,42,9.8z"/>
	<path class="st1" d="M65,42.4c6.3,0,12.7,0,19,0c1.4,0,2.5,0.6,3.2,1.8c0.2,0.4,0.3,0.9,0.5,1.3c0,0.1-0.1,0.3-0.1,0.4
		c0,0.2-0.1,0.4-0.1,0.5c0,3.3,0,6.7,0,10c0,0.9-0.2,1.7-0.8,2.4c-0.7,0.9-1.7,1.3-2.8,1.4c-0.2,0-0.3,0-0.5,0
		c-12.4,0-24.8,0-37.2,0c-0.4,0-0.9,0-1.3-0.1c-1.5-0.3-2.7-1.8-2.7-3.5c0-3.5,0-7.1,0-10.6c0-1.9,1.6-3.6,3.6-3.6
		c1.8,0,3.7,0,5.5,0C55.9,42.4,60.5,42.4,65,42.4z M83.6,46.6c-12.4,0-24.8,0-37.2,0c0,3.2,0,6.4,0,9.6c12.4,0,24.8,0,37.2,0
		C83.6,53,83.6,49.8,83.6,46.6z"/>
	<path class="st1" d="M65,62.1c6.3,0,12.7,0,19.1,0c1.2,0,2.1,0.5,2.9,1.4c0.4,0.5,0.6,1.1,0.6,1.8c0,3.7,0,7.3,0,10.9
		c0,1.8-1.4,3.2-2.8,3.5c-0.3,0.1-0.6,0.1-1,0.1c-7.9,0-15.9,0-23.8,0c-4.7,0-9.4,0-14.1,0c-1,0-1.8-0.3-2.5-1s-1.1-1.6-1.1-2.6
		c0-3.5,0-7.1,0-10.6c0-2,1.8-3.6,3.6-3.6C52.2,62.1,58.6,62.1,65,62.1z M46.4,75.9c12.4,0,24.8,0,37.1,0c0.1-0.6,0.1-9.3,0-9.7
		c-12.3,0-24.7,0-37.1,0C46.4,69.4,46.4,72.6,46.4,75.9z"/>
	<path class="st1" d="M58.6,33.9c-0.3,0-0.7,0-1,0c-0.8,0-1.4-0.3-1.7-1.1s-0.3-1.6,0.2-2.3c0.3-0.4,0.7-0.7,1.2-0.7
		c0.9,0,1.8-0.1,2.6,0c0.9,0.1,1.5,0.8,1.6,1.7c0,0.3,0,0.6,0,0.9c-0.2,0.9-0.9,1.4-1.8,1.5C59.2,34,58.9,33.9,58.6,33.9z"/>
	<path class="st1" d="M51.3,33.9c-0.3,0-0.6,0-0.9,0c-1.2,0-1.9-0.8-2-1.9c-0.1-1.1,0.6-2,1.7-2.1c0.8-0.1,1.6-0.1,2.4,0
		c0.9,0.1,1.5,0.8,1.6,1.7c0,0.3,0,0.6,0,0.9c-0.2,0.9-0.9,1.4-1.8,1.5C52,34,51.7,33.9,51.3,33.9L51.3,33.9z"/>
	<path class="st1" d="M79.4,34c-0.3,0-0.7,0-1.1-0.1c-0.6-0.2-1.1-0.6-1.3-1.2c-0.3-1-0.1-2.3,1.1-2.7c0.8-0.3,1.6-0.2,2.4,0
		c1,0.3,1.5,1.4,1.2,2.5c-0.2,0.9-0.9,1.4-1.8,1.5C79.9,33.9,79.6,33.9,79.4,34L79.4,34z"/>
	<path class="st1" d="M40.2,18.6c0.2-0.1,0.3-0.3,0.4-0.4c1.2-1.2,2.5-2.5,3.7-3.7c0.1-0.1,0.2-0.2,0.4-0.4c0.8-0.7,2-0.6,2.7,0.1
		c0.8,0.7,0.8,1.8,0.2,2.7c-0.1,0.1-0.2,0.3-0.3,0.4c-1.8,1.8-3.7,3.7-5.5,5.5c-0.5,0.5-1,0.8-1.6,0.7c-0.5,0-0.9-0.1-1.2-0.5
		c-1-1-2.1-2.1-3.1-3.1c-0.8-0.8-0.7-2,0.2-2.9c0.8-0.7,2-0.7,2.8,0c0.4,0.4,0.7,0.7,1.1,1.1C39.9,18.4,40,18.5,40.2,18.6z"/>
	<path class="st1" d="M51.3,49.7c0.3,0,0.7,0,1,0c1,0.1,1.8,0.7,1.9,1.7c0.1,1.1-0.3,2-1.2,2.3c-0.1,0-0.2,0.1-0.3,0.1
		c-0.9,0-1.8,0.1-2.6,0c-0.9-0.1-1.5-0.8-1.6-1.7c0-0.3,0-0.6,0-0.9c0.2-0.9,0.9-1.4,1.8-1.5C50.7,49.6,51,49.7,51.3,49.7L51.3,49.7
		z"/>
	<path class="st1" d="M58.4,49.6c0.5,0,0.9,0,1.4,0.1c0.9,0.2,1.4,0.8,1.5,1.7c0.1,1.1-0.4,1.9-1.2,2.2c-0.1,0-0.2,0.1-0.3,0.1
		c-0.9,0-1.7,0.1-2.6,0c-0.9-0.1-1.5-0.8-1.6-1.6c0-0.2,0-0.3,0-0.5c0-1.2,0.8-1.9,2-2C57.7,49.6,58.1,49.6,58.4,49.6L58.4,49.6z"/>
	<path class="st1" d="M79.3,49.6c0.3,0,0.7,0,1,0.1c0.7,0.2,1.2,0.6,1.3,1.3c0.2,0.9,0.1,1.6-0.6,2.3c-0.6,0.6-2.9,0.6-3.5,0
		s-0.9-1.5-0.6-2.4c0.2-0.8,0.9-1.3,1.7-1.3C78.8,49.6,79.1,49.7,79.3,49.6L79.3,49.6z"/>
	<path class="st1" d="M51.1,73.8c-0.4,0-0.8,0-1.1,0c-1-0.1-1.7-0.8-1.7-1.7c0-0.4,0-0.8,0.1-1.2c0.3-0.8,0.9-1.2,1.7-1.2
		c0.6,0,1.2,0,1.9,0c1.2,0,2,0.8,2,2.1c0,1.2-0.7,2-2,2.1C51.7,73.8,51.4,73.8,51.1,73.8L51.1,73.8z"/>
	<path class="st1" d="M58.2,69.7c0.4,0,0.7,0,1.1,0c1,0.1,1.8,0.8,1.8,1.8c0.1,1.1-0.4,1.9-1.3,2.2c-0.2,0.1-0.3,0.1-0.5,0.1
		c-0.6,0-1.3,0-1.9,0c-1.4-0.1-2.3-1.4-1.9-2.7c0.2-0.8,0.9-1.3,1.7-1.3C57.4,69.7,57.8,69.7,58.2,69.7L58.2,69.7z"/>
	<path class="st1" d="M79,69.7c0.3,0,0.7,0,1.1,0.1c1,0.2,1.5,1.1,1.4,2.2c-0.1,1-0.8,1.7-1.8,1.8c-0.4,0-0.8,0-1.3,0
		c-1.4-0.1-2.4-1.5-1.7-3.1c0.3-0.6,0.8-0.9,1.5-1C78.6,69.7,78.8,69.7,79,69.7L79,69.7z"/>
</g>
<g class="st0">
	<path class="st1" d="M28,113.1c-0.2,0.9-0.5,1.7-1.1,2.4c-0.9,1.1-2.1,1.6-3.5,1.7c-0.5,0-0.9,0-1.4,0c-3.9,0-7.8,0-11.7,0
		c-1.6,0-2.9-0.6-3.9-1.9c-0.6-0.7-0.8-1.6-0.9-2.5c0-0.2,0-0.4,0-0.6c0-14.4,0-28.8,0-43.3c0-0.4,0-0.8,0.1-1.2
		C6,65.5,7.8,64,10,63.9c0.1,0,0.3,0,0.4,0c4.2,0,8.4,0,12.7,0c0.7,0,1.4,0.1,2,0.4c1.8,0.8,2.8,2.2,2.9,4.2c0,0.3,0,0.6,0,0.9
		c1.8,0,3.6,0,5.3,0c-2.2-14.4,1.7-26.7,12-37c-0.1-0.1-0.2-0.3-0.3-0.5c-0.5-0.8-1.1-1.6-1.6-2.4c-2-3.5,0-7.9,3.9-8.5
		c2.2-0.4,4.1,0.4,5.5,2.1c0.6,0.7,1,1.5,1.6,2.3c0.1,0.1,0.2,0.3,0.3,0.4c3.9-2,7.9-3.3,12.2-3.9c0.1-0.4,0.2-4.1,0.1-5
		c-0.2,0-0.4,0-0.6,0c-0.7,0-1.3,0-2-0.1c-1.8-0.4-3-1.8-3-3.5c0-1.3,0-2.7,0-4c0.1-2.3,2.1-3.7,3.8-3.7c5,0,10.1,0,15.1,0
		c2.1,0,3.7,1.6,3.7,3.7c0,1.3,0,2.6,0,3.9c0,2.1-1.7,3.7-3.7,3.7c-0.6,0-1.2,0-1.8,0c0,1.6,0,3.2,0,4.9c2.2,0.3,4.3,0.8,6.4,1.5
		s4.2,1.5,6.2,2.5c0.1-0.1,0.2-0.3,0.3-0.4c0.5-0.8,1-1.6,1.6-2.3c1.3-1.8,3.7-2.6,5.8-2c2.3,0.6,3.8,2.2,4.3,4.5
		c0.3,1.5,0,2.9-0.9,4.1c-0.5,0.7-1,1.5-1.5,2.2c-0.1,0.1-0.2,0.3-0.3,0.5c6.9,6.7,11.1,14.8,12.3,24.3c1.2,9.5-0.9,18.4-6.1,26.6
		c0.3-0.1,0.4-0.2,0.6-0.2c1.3-0.5,2.5-1.2,3.8-1.6c3.8-1.2,7.1-0.4,10,2.4c1.8,1.8,2.7,4,2.7,6.5c0,3.8-1.7,6.7-5.1,8.5
		c-1.8,0.9-3.7,1.7-5.5,2.5c-14.2,6.2-28.3,12.4-42.5,18.6c-2.9,1.3-6,1.9-9.2,2.1c-3.1,0.1-6.1-0.2-9-0.9c-3.1-0.7-6.2-1.8-9.2-2.8
		c-4.8-1.7-9.5-3.3-14.3-5C28.6,113.3,28.3,113.2,28,113.1z M85.8,92.3c0.2-0.1,0.4-0.1,0.5-0.2c4.2-1.8,8.4-3.6,12.7-5.4
		c0.3-0.1,0.5-0.3,0.8-0.6c3.2-3.6,5.7-7.6,7.3-12.1c1.2-3.4,1.9-6.8,2.1-10.4c0.1-2.1,0-4.2-0.2-6.3c-0.3-2.2-0.7-4.4-1.4-6.5
		c-1.4-4.3-3.5-8.3-6.4-11.9c-2.7-3.4-5.9-6.2-9.6-8.4c-4.9-3-10.3-4.7-16.1-5.1c-2.8-0.2-5.6-0.1-8.3,0.3c-6,1-11.4,3.2-16.3,6.9
		c-5.5,4.2-9.6,9.6-12.1,16.1c-1.3,3.3-2,6.7-2.3,10.2c-0.2,2.8-0.1,5.6,0.3,8.3c0.1,0.8,0.3,1.5,0.4,2.3c0.2,0,0.3,0,0.4,0.1
		c1.7,0.2,3.3,0.4,5,0.8c4.8,1.1,9.2,3.1,13.2,6c1.1,0.8,2.2,1.7,3.3,2.6c1,0.8,2.1,1.3,3.4,1.2c4,0,7.9,0,11.9,0
		c2.7,0,5.1,0.7,7.2,2.4c2.6,2.1,4.1,4.9,4.2,8.3C85.8,91.3,85.8,91.8,85.8,92.3z M28.1,109.2c0.2,0.1,0.4,0.2,0.6,0.2
		c4.1,1.4,8.2,2.9,12.4,4.3c2.9,1,5.8,2.1,8.7,3c3.4,1.1,6.9,1.8,10.5,1.8c3,0,6-0.5,8.8-1.7c15.7-6.9,31.3-13.7,47-20.6
		c0.4-0.2,0.9-0.4,1.3-0.7c3.1-2,3.5-6.7,0.7-9.1c-1.9-1.6-4-2-6.3-1c-9,3.8-18,7.7-27,11.5c-0.2,0.1-0.4,0.3-0.6,0.5
		c-1,1.6-2.4,2.9-4.1,3.8s-3.5,1.3-5.4,1.3c-6.4,0-12.8,0-19.2,0c-0.1,0-0.2,0-0.4,0c-1-0.1-1.7-0.8-1.8-1.8c0-1,0.7-1.8,1.7-1.9
		c0.2,0,0.4,0,0.6,0c6.2,0,12.5,0,18.7,0c0.5,0,1,0,1.5-0.1c3.2-0.4,6.1-3.1,6.3-6.8c0.2-2.9-1-5.2-3.5-6.8C77.4,84.3,76,84,74.5,84
		c-4.1,0-8.2,0-12.3,0c-1.7,0-3.3-0.5-4.7-1.5c-0.9-0.7-1.7-1.3-2.5-2c-3.6-2.9-7.7-4.9-12.1-6.1c-2.8-0.8-5.7-1.1-8.5-1.1
		c-2,0-4,0-5.9,0c-0.1,0-0.2,0-0.3,0.1C28.1,85.1,28.1,97.1,28.1,109.2z M18.1,108.4c1.9,0,3.4-1.5,3.4-3.3c0-1.9-1.5-3.4-3.4-3.4
		s-3.4,1.5-3.4,3.4C14.7,106.9,16.2,108.4,18.1,108.4z"/>
	<path class="st1" d="M74.7,55.9c3.4,1.2,5.2,4.8,3.6,8.5c0.1,0.1,0.3,0.2,0.4,0.3c1.5,1.4,3,2.8,4.5,4.2c0.1,0.1,0.3,0.3,0.4,0.4
		c0.6,0.7,0.7,1.7,0,2.4c-0.6,0.7-1.7,0.8-2.4,0.3c-0.4-0.3-0.7-0.6-1-0.9c-1.3-1.2-2.7-2.5-4-3.8c-0.1-0.1-0.3-0.2-0.4-0.4
		c-2.8,1.3-5.3,0.9-7.5-1.3c-0.2,0.1-0.3,0.2-0.5,0.3c-2.3,1.3-4.6,2.7-6.9,4c-0.2,0.1-0.3,0.2-0.5,0.3c-0.7,0.3-1.4,0-1.7-0.6
		s-0.2-1.3,0.3-1.7c0.2-0.1,0.4-0.3,0.6-0.4c2.3-1.3,4.6-2.7,6.9-4c0.2-0.1,0.3-0.2,0.5-0.3c-0.4-1.5-0.2-3,0.5-4.4
		c0.8-1.4,1.9-2.3,3.5-2.9c0-0.2,0-0.4,0-0.6c0-3.8,0-7.7,0-11.5c0-0.3,0-0.6,0.1-0.8c0.2-0.8,0.9-1.4,1.7-1.5
		c0.8,0,1.6,0.5,1.8,1.4c0.1,0.3,0.1,0.6,0.1,0.9c0,3.8,0,7.7,0,11.5C74.7,55.5,74.7,55.7,74.7,55.9z"/>
	<path class="st1" d="M87.5,89.3c-0.4,0-1-0.2-1.3-0.8c-0.4-0.7-0.9-1.4-1.3-2.2c-0.4-0.9-0.1-1.9,0.8-2.4c0.8-0.5,1.9-0.2,2.4,0.6
		c0.4,0.7,0.9,1.4,1.2,2.1C90,87.9,89.1,89.3,87.5,89.3z"/>
	<path class="st1" d="M48.8,49.8c-0.3-0.1-0.6-0.2-0.8-0.3c-0.7-0.4-1.3-0.7-2-1.2c-0.8-0.5-1.1-1.6-0.6-2.4
		c0.5-0.8,1.5-1.2,2.4-0.8c0.7,0.3,1.4,0.8,2,1.2c0.7,0.5,1,1.3,0.8,2.1C50.4,49.2,49.7,49.7,48.8,49.8z"/>
	<path class="st1" d="M74.7,33c0,0.5,0,1-0.1,1.4c-0.2,0.9-0.9,1.5-1.8,1.5s-1.7-0.6-1.7-1.5c-0.1-0.9-0.1-1.9,0-2.8
		s0.9-1.5,1.8-1.5s1.7,0.6,1.8,1.4C74.7,32,74.7,32.5,74.7,33z"/>
	<path class="st1" d="M96.9,49.7c-0.9,0-1.6-0.5-1.9-1.2s-0.1-1.6,0.6-2.1c0.8-0.5,1.5-1,2.4-1.3c0.8-0.4,1.7,0,2.2,0.7
		c0.5,0.8,0.4,1.8-0.3,2.3c-0.8,0.6-1.7,1-2.5,1.5C97.2,49.7,97,49.7,96.9,49.7z"/>
	<path class="st1" d="M59,39.6c-0.6,0-1.1-0.2-1.5-0.8c-0.5-0.7-0.9-1.4-1.2-2.2c-0.4-0.8-0.2-1.7,0.5-2.2s1.7-0.5,2.3,0
		c0.1,0.1,0.3,0.2,0.3,0.4c0.4,0.7,0.8,1.4,1.2,2.1C61.3,38.2,60.4,39.6,59,39.6z"/>
	<path class="st1" d="M94.9,75.7c0-1.4,1.2-2.4,2.4-1.9c0.9,0.4,1.7,0.9,2.5,1.4c0.7,0.5,0.8,1.5,0.4,2.3c-0.4,0.7-1.3,1.1-2.2,0.8
		c-0.2-0.1-0.3-0.1-0.5-0.2c-0.6-0.3-1.2-0.7-1.8-1C95.2,76.7,94.9,76.2,94.9,75.7z"/>
	<path class="st1" d="M87.7,34c1.3,0,2.2,1.3,1.7,2.5c-0.4,0.8-0.8,1.6-1.3,2.3c-0.5,0.8-1.6,0.9-2.4,0.4s-1.1-1.4-0.7-2.3
		c0.4-0.8,0.8-1.5,1.3-2.3C86.6,34.2,87.1,34,87.7,34z"/>
	<path class="st1" d="M44.1,59.8c0.4,0,0.8,0,1.2,0c1,0,1.7,0.7,1.8,1.7s-0.6,1.8-1.5,2c-0.1,0-0.2,0-0.3,0c-0.8,0-1.5,0-2.2,0
		c-0.8,0-1.5-0.6-1.7-1.3c-0.2-0.8,0-1.6,0.7-2c0.3-0.2,0.6-0.3,1-0.3C43.3,59.8,43.7,59.8,44.1,59.8L44.1,59.8z"/>
	<path class="st1" d="M101.6,59.8c0.3,0,0.7,0,1.1,0c1,0,1.8,0.8,1.8,1.8s-0.7,1.8-1.7,1.9c-0.8,0-1.6,0-2.4,0
		c-1-0.1-1.7-0.9-1.7-1.8c0-1,0.8-1.8,1.8-1.8C100.8,59.8,101.2,59.8,101.6,59.8L101.6,59.8z"/>
</g>
<g class="st0">
	<path class="st1" d="M62.6,89.9c-0.3,0-0.5,0-0.7,0c-2.9,0-5.8,0-8.7,0c-1.5,0-2.9-0.5-4-1.7c-1-1.1-1.6-2.4-1.7-4
		c0-0.3,0-0.6,0-0.9c0-20.2,0-40.4,0-60.5c0-1.3,0.2-2.6,0.8-3.7c1.1-1.8,2.6-2.8,4.5-2.9c0.2,0,0.4,0,0.6,0c22.3,0,44.6,0,66.9,0
		c1.4,0,2.6,0.3,3.7,1.3c1.4,1.2,2.1,2.8,2.2,4.7c0,0.2,0,0.4,0,0.6c0,20.3,0,40.5,0,60.8c0,1.1-0.1,2.1-0.5,3.1
		c-1,2.2-2.6,3.4-4.8,3.5c-0.2,0-0.5,0-0.7,0c-10.2,0-20.3,0-30.5,0c-0.5,0-0.8,0.1-1.2,0.5c-5.8,6.5-11.6,13-17.3,19.6
		c-0.5,0.6-1,1.1-1.7,1.4c-2.9,1.5-6.7-0.6-7-4.7c0-0.3,0-0.6,0-0.9c0-5.1,0-10.2,0-15.3C62.6,90.4,62.6,90.2,62.6,89.9z M64.1,52.2
		c0,14.1,10.2,25.5,22.6,25.6c12.5,0.1,22.7-11.3,22.7-25.5c0-14-10.1-25.6-22.6-25.6C74.5,26.6,64.2,38,64.1,52.2z"/>
	<path class="st1" d="M20,67.4c4.7,0,9.3,0,14,0c1.1,0,2,0.4,2.8,1.2c1.3,1.3,1.7,3.2,1.1,5c-0.6,1.8-2,2.9-3.7,3c0,0-0.1,0-0.2,0
		c-9.4,0-18.8,0-28.2,0c-1.2,0-2.3-0.5-3.1-1.5C1.6,73.7,1.3,72,2,70.3s1.9-2.7,3.6-2.8c1.9-0.1,3.7,0,5.6,0
		C14.2,67.4,17.1,67.4,20,67.4z"/>
	<path class="st1" d="M24.1,47.6c3.4,0,6.7,0,10.1,0c1.7,0,3.3,1.2,3.8,3.1c0.9,2.9-1,5.9-3.7,6c-0.1,0-0.1,0-0.2,0
		c-6.7,0-13.4,0-20,0c-1.2,0-2.2-0.5-3-1.4c-1.2-1.4-1.5-3.1-0.8-4.9c0.7-1.8,1.9-2.8,3.6-2.8C17.3,47.6,20.7,47.6,24.1,47.6
		L24.1,47.6z"/>
	<path class="st1" d="M28.1,37.1c-2,0-4,0-6,0c-1.8,0-3.4-1.4-3.9-3.3c-0.7-2.9,1.2-5.8,3.9-5.8c1.3,0,2.7,0,4,0c2.6,0,5.2,0,7.9,0
		c1.8,0,3.3,1.2,3.9,3.1c0.9,2.9-1,6-3.8,6C32.2,37.2,30.2,37.1,28.1,37.1z"/>
	<path class="st1" d="M86.8,32.1c10.2,0.1,17.9,9.3,17.9,20.1c0,11-8.1,20.1-18,20.1c-9.4,0-17.8-8.5-17.8-20.1
		C69,41.2,76.8,32.2,86.8,32.1z M89.3,49.4c0-0.3,0-0.5,0-0.7c0-2.3,0-4.6,0-6.9c0-0.5,0-1-0.2-1.4c-0.5-1.1-1.6-1.7-2.6-1.5
		c-1.1,0.3-1.8,1.3-1.8,2.5c0,3.6,0,7.1,0,10.7c0,1.2,0.8,2.6,2.4,2.6c2.7,0,5.3,0,8,0c1.1,0,2-0.8,2.2-2.1c0.3-1.2-0.2-2.4-1.2-3
		c-0.4-0.3-0.9-0.3-1.4-0.3c-1.6,0-3.2,0-4.7,0C89.7,49.4,89.5,49.4,89.3,49.4z"/>
</g>
<path class="st2" d="M34.3,117.8c-0.4-0.1-0.6-0.1-0.9-0.1c-11.2-2.4-19.6-6.5-24.6-11.9c-3.5-3.8-5.2-8-5-12.6
	c0.2-3.7,1.5-6.6,2.1-7.7c3.5-7.3,9.9-10.8,14.5-12.6c3.8-1.4,7.3-2,10.2-2.4c4-0.7,6.8-1.1,7.6-3c0.4-1,0.6-2,0.3-2.8
	c-0.5-1.6-2-2.9-4.2-3.4c-0.5-0.1-1.2-0.2-1.8-0.1c-0.1,0-0.3,0-0.2-0.2c0-0.2,0.1-0.3,0.2-0.3c0.7-0.1,1.3,0,2,0.2
	c2.3,0.7,3.9,2,4.4,3.8c0.3,1.1,0.2,2.2-0.3,3.4c-1,2.1-3.9,2.6-8,3.3c-2.9,0.5-6.5,1.1-10.2,2.4c-4.7,1.8-10.5,4.7-13.8,11.8
	c-3.5,6.9-2.8,13.8,2.6,19.5c5,5.4,13.1,9.2,24.3,11.6c3.4,0.7,7.7,0.6,10-1.7c1.1-1.2,1.5-2.3,1.6-4.4c0-0.2,0.1-0.3,0.2-0.3
	c0.1,0,0.3,0,0.2,0.2c0,2.2-0.5,4-1.7,5.2C41.3,118.6,36.6,118.1,34.3,117.8z"/>
<path class="st2" d="M23.1,55c7.3,4.7,12.7,8.8,13.1,13.6c0.5,4.3-1.9,6.9-5.3,10.6c-3.2,3.7-7.2,8.2-10.2,16.1
	c-1.8,5-2.4,8.8-2.4,10.5l-0.1,0.5c-0.3,5.7-2,12.1,4.6,16.9c7.7,5.7,21.2,4.2,32.3-1.2c17-8.3,13.9-18.8,14.1-20.1
	c0-0.2,0.2-0.2,0.4-0.3c0.2,0,0.3,0.1,0.3,0.3c-0.1,1.4,3,12.5-14.4,20.5c-3.9,1.9-7.6,3.2-11.5,4.1c-8.6,1.9-17.5,1-22.2-2.8
	c-5.4-4.3-5-11.6-4.6-17.3l0.1-0.5c0.1-1.8,0.6-5.6,2.4-10.5c3-8,7.2-12.6,10.4-16.3c3.2-3.7,5.6-6.3,5.2-10.3
	c-0.5-4.6-5.7-8.7-13-13.3L23.1,55z"/>
<g>
	<g>
		<path class="st2" d="M126.8,45.7l-24-41.6c-1.1-1.9-3-3-5.2-3c-2.3,0-4.1,1.1-5.2,3L68.6,45.7c-1.1,1.9-1.1,3.9,0,5.8
			c1.1,1.7,3.2,2.8,5.2,2.8h47.7c2.1,0,4.1-1,5.2-2.8C127.7,49.6,127.9,47.5,126.8,45.7z M104.1,15.1c0.2,0,0.3,0,0.3,0.2l14.9,25.3
			c0,0.2-0.2,0.3-0.3,0.3c-0.2,0-0.2,0-0.2-0.2l-14.9-25.3C103.8,15.2,103.8,15.1,104.1,15.1z M78.4,37.1l17.2-30
			c0.3-0.8,1.1-1.1,2-1.1c1,0,1.7,0.3,2.1,1.1l1.9,3.2c0,0.2,0,0.3-0.2,0.3s-0.3,0-0.3-0.2l-1.9-3.2c-0.3-0.5-1-0.8-1.5-0.8
			s-1.1,0.3-1.5,1L79,37.4c-0.2,0-0.2,0-0.3,0C78.3,37.2,78.3,37.1,78.4,37.1z M104.1,50.5H74.5c-0.8,0-1.7-0.3-2.1-1.1
			c-0.3-0.8-0.3-1.5,0-2.3l3-5.4c0-0.2,0.2-0.2,0.3-0.2c0.2,0,0.2,0.2,0.2,0.3l-3,5.4c-0.3,0.5-0.3,1.1,0,1.7c0.3,0.7,1,0.8,1.5,0.8
			h29.7c0.1,0.1,0.3,0.2,0.3,0.4C104.4,50.3,104.3,50.5,104.1,50.5z M104.7,26.4l-9.3,20.3c0,0.2-0.1,0.2-0.3,0.2s-0.2-0.1-0.2-0.3
			l2.6-15.2c0.2,0,0-0.2,0-0.2s0,0-0.2,0l-7.2,1c-0.1,0-0.3,0-0.3-0.2c0-0.1,0-0.1,0-0.3l8.4-16.8c0-0.2,0.1-0.2,0.3-0.2
			c0.2,0,0.2,0.1,0.2,0.3l-2,12.3c-0.2,0,0,0.2,0,0.2c0.1,0,0.1,0,0.3,0l7.3-1.5c0.1,0,0.3,0.2,0.3,0.2
			C104.7,26.2,104.7,26.2,104.7,26.4z M122.7,49.4c-0.3,0.8-1.1,1.1-2.1,1.1H109c-0.2,0-0.3-0.2-0.3-0.3c0-0.2,0.2-0.3,0.3-0.3h11.7
			c0.5,0,1.1-0.3,1.5-0.8c0.3-0.5,0.3-1.1,0-1.7c0-0.2,0-0.3,0.2-0.3s0.3,0,0.3,0.2C123,47.8,123,48.6,122.7,49.4z"/>
	</g>
</g>
<g>
	<path class="st2" d="M74.1,49.5c-4.8-4.8-11.4-7.7-18.6-7.5c-14.1,0.3-25.2,12.2-25.2,26.3v27.4c0,7.8,6.3,14.1,14.1,14.1h23.2
		c7.8,0,14.1-6.3,14.1-14.1V67.6C81.6,60.5,78.7,54.1,74.1,49.5z M43.1,52.8h25.7c1.2,0,2.2,1,2.2,2.2v3.5c0,1.2-1,2.2-2.2,2.2H43.1
		c-1.2,0-2.2-1-2.2-2.2V55C40.9,53.8,41.9,52.8,43.1,52.8z M44.2,91c-4.8-5.9-4.4-14.6,1.1-20.1s14.2-5.8,20.1-1.1L44.2,91z
		 M46.5,93.3l21.2-21.2c4.8,5.9,4.4,14.6-1.1,20.1S52.4,98,46.5,93.3z M72.7,100c-1.3,0-2.4-1.1-2.4-2.4s1.1-2.4,2.4-2.4
		s2.4,1.1,2.4,2.4S74,100,72.7,100z"/>
	<g>
		<path class="st2" d="M45.5,113.3h-0.9c-1.2,0-2.3-1-2.3-2.3v-3.1h5.4v3.1C47.8,112.3,46.8,113.3,45.5,113.3z"/>
		<path class="st2" d="M67.2,113.3h-0.9c-1.2,0-2.3-1-2.3-2.3v-3.1h5.4v3.1C69.4,112.3,68.4,113.3,67.2,113.3z"/>
	</g>
</g>
<path class="st2" d="M127.4,97.6l-4.7-1.8c0-1.1-0.2-2.1-0.4-2.9l4.2-2.7c0.1-0.1,0.2-0.2,0.2-0.2s0-0.1,0-0.2l-1.8-4.3
	c-0.2-0.2-0.2-0.2-0.4-0.2l-5,0.9c-0.1-0.1-0.2-0.2-0.3-0.4c-0.2-0.3-0.4-0.4-0.4-0.6c-0.4-0.5-0.7-1-1.2-1.4v-0.1l0,0l2.3-4.5
	c0.2-0.2,0.2-0.4,0-0.4l-3.8-2.9c-0.2,0-0.2,0-0.4,0l-4,2.9c-0.9-0.5-1.8-0.9-2.7-1.2l-0.4-4.9c0,0,0-0.2-0.2-0.2l-4.9-0.7
	c-0.2,0-0.4,0-0.4,0.2l-1.8,4.7c-1.1,0.2-2.1,0.2-2.9,0.5l-2.9-4c0-0.2-0.2-0.2-0.4-0.2l-4.5,1.8c-0.2,0.2-0.2,0.2-0.2,0.4l0.9,4.9
	c-0.9,0.5-1.8,1.1-2.4,1.8l-4.8-2.1c-0.2-0.2-0.4-0.2-0.4,0l-2.9,3.6c0,0.2,0,0.2,0,0.4l3.3,3.8c-0.5,0.9-0.9,1.9-1.2,2.7l-5,0.4
	c0,0-0.2,0-0.2,0.2L77,95.6c0,0.2,0,0.4,0.2,0.4l4.7,1.8c0,1.1,0.2,2.1,0.4,2.9l-4.2,2.7c-0.2,0.2-0.2,0.2-0.2,0.4l1.8,4.3
	c0.2,0.2,0.2,0.2,0.4,0.2l5.1-0.9h0.1c0.7,0.9,1.2,1.8,1.9,2.4l-2.3,4.5c-0.2,0.2-0.2,0.4,0,0.4l3.8,2.9c0.2,0,0.2,0,0.4,0l4-3.1
	c0.9,0.4,1.8,0.7,2.7,1.2l0.4,4.9c0,0,0,0.2,0.2,0.2l4.9,0.7c0.2,0,0.4-0.2,0.4-0.2l1.8-4.7c1.1,0,1.9-0.2,2.9-0.4l2.9,4
	c0,0.2,0.2,0.2,0.4,0.2l4.5-1.8c0.2-0.2,0.2-0.2,0.2-0.4l-0.9-4.9c0.9-0.5,1.8-1.1,2.4-1.8l4.7,2.1c0.2,0.2,0.4,0.2,0.4,0l2.7-3.6
	c0-0.2,0-0.2,0-0.4l-3.2-3.7c0.5-0.9,0.9-1.9,1.2-2.7l5-0.4c0,0,0.2,0,0.2-0.2l0.6-4.7C127.6,97.8,127.6,97.6,127.4,97.6z
	 M102.4,106.5c-5.4,0-9.8-4.4-9.8-9.8s4.4-9.8,9.8-9.8s9.8,4.4,9.8,9.8C112.2,102.1,107.8,106.5,102.4,106.5z"/>
<path class="st2" d="M56.6,29.5l-5.2-2c0-1.2-0.2-2.4-0.4-3.2l4.6-3c0.1-0.1,0.2-0.2,0.2-0.2s0-0.1,0-0.2l-2-4.8
	c-0.2-0.2-0.2-0.2-0.4-0.2l-5.6,1c-0.1-0.1-0.2-0.2-0.3-0.4c-0.2-0.3-0.4-0.5-0.5-0.7c-0.4-0.6-0.8-1.1-1.3-1.6v-0.1l0,0l2.5-5
	c0.2-0.2,0.2-0.4,0-0.4L44,5.5c-0.2,0-0.2,0-0.4,0l-4.4,3.2c-1-0.6-2-1-3-1.4L35.9,2c0,0,0-0.2-0.2-0.2L30.3,1c-0.2,0-0.4,0-0.4,0.2
	l-2,5.2c-1.2,0.2-2.4,0.2-3.2,0.6l-3.2-4.4c0-0.2-0.2-0.2-0.4-0.2l-5,2c-0.2,0.2-0.2,0.2-0.2,0.4l1,5.4c-1,0.6-2,1.2-2.6,2L8.9,9.7
	c-0.2-0.2-0.4-0.2-0.4,0l-3.2,4c0,0.2,0,0.2,0,0.4l3.6,4.2c-0.6,1-1,2.2-1.4,3L2,21.8c0,0-0.2,0-0.2,0.2L1,27.2c0,0.2,0,0.4,0.2,0.4
	l5.2,2c0,1.2,0.2,2.4,0.4,3.2l-4.6,3C2,36,2,36,2,36.2L4,41c0.2,0.2,0.2,0.2,0.4,0.2l5.7-1h0.1c0.8,1,1.4,2,2.2,2.6l-2.5,5
	c-0.2,0.2-0.2,0.4,0,0.4l4.2,3.2c0.2,0,0.2,0,0.4,0l4.4-3.4c1,0.4,2,0.8,3,1.4l0.4,5.4c0,0,0,0.2,0.2,0.2l5.4,0.8
	c0.2,0,0.4-0.2,0.4-0.2l2-5.2c1.2,0,2.2-0.2,3.2-0.4l3.2,4.4c0,0.2,0.2,0.2,0.4,0.2l5-2c0.2-0.2,0.2-0.2,0.2-0.4l-1-5.4
	c1-0.6,2-1.2,2.6-2l5.2,2.4c0.2,0.2,0.4,0.2,0.4,0l3-4c0-0.2,0-0.2,0-0.4L49,38.7c0.6-1,1-2.2,1.4-3l5.6-0.4c0,0,0.2,0,0.2-0.2
	l0.7-5.2C56.8,29.7,56.8,29.5,56.6,29.5z M28.9,39.3c-6,0-10.9-4.9-10.9-10.9s4.9-10.9,10.9-10.9s10.9,4.9,10.9,10.9
	S34.9,39.3,28.9,39.3z"/>
</svg>
